<svg xmlns="http://www.w3.org/2000/svg" width="1040" height="568" viewBox="40 112 1040 568" role="img" aria-labelledby="title desc">
  <title id="title">verl-SpeCo architecture</title>
  <desc id="desc">A triangular data-flow diagram for the actor engine, rollout engine, and drafter trainer in verl-SpeCo.</desc>
  <defs>
    <filter id="shadow" x="-20%" y="-20%" width="140%" height="150%">
      <feDropShadow dx="0" dy="12" stdDeviation="14" flood-color="#0f172a" flood-opacity="0.12"/>
    </filter>

    <marker id="arrow-blue" viewBox="0 0 12 12" refX="10" refY="6" markerWidth="9" markerHeight="9" orient="auto">
      <path d="M 1 1 L 11 6 L 1 11 z" fill="#2563eb"/>
    </marker>
    <marker id="arrow-teal" viewBox="0 0 12 12" refX="10" refY="6" markerWidth="9" markerHeight="9" orient="auto">
      <path d="M 1 1 L 11 6 L 1 11 z" fill="#0f766e"/>
    </marker>
    <marker id="arrow-amber" viewBox="0 0 12 12" refX="10" refY="6" markerWidth="9" markerHeight="9" orient="auto">
      <path d="M 1 1 L 11 6 L 1 11 z" fill="#d97706"/>
    </marker>
    <marker id="arrow-slate" viewBox="0 0 12 12" refX="10" refY="6" markerWidth="9" markerHeight="9" orient="auto">
      <path d="M 1 1 L 11 6 L 1 11 z" fill="#475569"/>
    </marker>

    <style>
      .bg { fill: #f7f9fc; }
      .card { stroke-width: 1.4; filter: url(#shadow); }
      .card-rollout { fill: #0f766e; stroke: #0d9488; }
      .card-actor { fill: #2563eb; stroke: #3b82f6; }
      .card-drafter { fill: #b7791f; stroke: #d97706; }
      .card-title { font: 800 21px Inter, Arial, sans-serif; fill: #ffffff; letter-spacing: 0; }
      .card-subtitle { font: 600 13px Inter, Arial, sans-serif; fill: #e0f2fe; letter-spacing: 0; }
      .submodule { fill: #ffffff; fill-opacity: 0.16; stroke: #ffffff; stroke-opacity: 0.46; stroke-width: 1.1; }
      .submodule-text { font: 700 12px Inter, Arial, sans-serif; fill: #ffffff; letter-spacing: 0; }
      .ellipsis-text { font: 800 22px Inter, Arial, sans-serif; fill: #ffffff; letter-spacing: 0; }
      .icon-text { font: 800 18px Inter, Arial, sans-serif; fill: #ffffff; letter-spacing: 0; }
      .icon-ring { fill: #ffffff; fill-opacity: 0.14; stroke: #ffffff; stroke-opacity: 0.72; stroke-width: 1.4; }

      .flow-blue { fill: none; stroke: #2563eb; stroke-width: 3; stroke-linecap: round; marker-end: url(#arrow-blue); }
      .flow-blue-dashed { fill: none; stroke: #2563eb; stroke-width: 3; stroke-linecap: round; stroke-dasharray: 8 8; marker-end: url(#arrow-blue); }
      .flow-teal { fill: none; stroke: #0f766e; stroke-width: 3; stroke-linecap: round; stroke-dasharray: 8 8; marker-end: url(#arrow-teal); }
      .flow-amber { fill: none; stroke: #d97706; stroke-width: 3; stroke-linecap: round; stroke-dasharray: 8 8; marker-end: url(#arrow-amber); }
      .flow-solid-slate { fill: none; stroke: #475569; stroke-width: 2.8; stroke-linecap: round; marker-end: url(#arrow-slate); }
      .flow-slate { fill: none; stroke: #475569; stroke-width: 2.6; stroke-linecap: round; stroke-dasharray: 8 8; marker-end: url(#arrow-slate); }

      .pill { fill: #ffffff; stroke-width: 1.4; }
      .pill-text { font: 800 14px Inter, Arial, sans-serif; letter-spacing: 0; }
    </style>
  </defs>

  <rect class="bg" x="40" y="112" width="1040" height="568"/>

  <!-- Data flows. Paths are routed around the cards so labels and lines do not overlap. -->
  <path class="flow-blue" d="M 730 205 C 620 132, 500 132, 390 205"/>
  <path class="flow-solid-slate" d="M 390 278 C 485 360, 635 360, 730 278"/>
  <path class="flow-teal" d="M 236 320 C 204 392, 276 496, 405 512"/>
  <path class="flow-blue-dashed" d="M 884 320 C 916 392, 844 496, 715 512"/>
  <path class="flow-amber" d="M 472 430 C 470 372, 378 356, 296 320"/>

  <!-- Flow labels. -->
  <rect class="pill" x="485" y="134" width="150" height="34" rx="17" stroke="#bfdbfe"/>
  <text class="pill-text" x="560" y="156" text-anchor="middle" fill="#1d4ed8">Target Weights</text>

  <rect class="pill" x="485" y="326" width="150" height="34" rx="17" stroke="#cbd5e1"/>
  <text class="pill-text" x="560" y="348" text-anchor="middle" fill="#475569">Rollout Output</text>

  <rect class="pill" x="165" y="410" width="150" height="34" rx="17" stroke="#99f6e4"/>
  <text class="pill-text" x="240" y="432" text-anchor="middle" fill="#0f766e">Drafter Samples</text>

  <rect class="pill" x="796" y="410" width="150" height="34" rx="17" stroke="#bfdbfe"/>
  <text class="pill-text" x="871" y="432" text-anchor="middle" fill="#1d4ed8">Drafter Samples</text>

  <rect class="pill" x="313" y="350" width="150" height="34" rx="17" stroke="#fed7aa"/>
  <text class="pill-text" x="388" y="372" text-anchor="middle" fill="#b45309">Draft Weights</text>

  <!-- Rollout engine. -->
  <rect class="card card-rollout" x="80" y="150" width="310" height="170" rx="14"/>
  <circle class="icon-ring" cx="124" cy="194" r="24"/>
  <text class="icon-text" x="124" y="201" text-anchor="middle">R</text>
  <text class="card-title" x="164" y="188">Rollout Engine</text>
  <text class="card-subtitle" x="164" y="212">vLLM / SGLang</text>
  <rect class="submodule" x="112" y="240" width="236" height="28" rx="7"/>
  <text class="submodule-text" x="230" y="259" text-anchor="middle">Target Model</text>
  <rect class="submodule" x="112" y="276" width="236" height="28" rx="7"/>
  <text class="submodule-text" x="230" y="295" text-anchor="middle">Draft Model</text>

  <!-- Actor engine. -->
  <rect class="card card-actor" x="730" y="150" width="310" height="170" rx="14"/>
  <circle class="icon-ring" cx="774" cy="194" r="24"/>
  <text class="icon-text" x="774" y="201" text-anchor="middle">A</text>
  <text class="card-title" x="814" y="188">Actor Engine</text>
  <text class="card-subtitle" x="814" y="212">FSDP / Megatron</text>
  <rect class="submodule" x="762" y="240" width="236" height="28" rx="7"/>
  <text class="submodule-text" x="880" y="259" text-anchor="middle">Old Logprob Computation</text>
  <rect class="submodule" x="762" y="276" width="236" height="28" rx="7"/>
  <text class="submodule-text" x="880" y="295" text-anchor="middle">Actor/Critic Training</text>

  <!-- Drafter trainer. -->
  <rect class="card card-drafter" x="405" y="430" width="310" height="230" rx="14"/>
  <circle class="icon-ring" cx="449" cy="472" r="24"/>
  <text class="icon-text" x="449" y="479" text-anchor="middle">D</text>
  <text class="card-title" x="489" y="466">Drafter Trainer</text>
  <text class="card-subtitle" x="489" y="490">FSDP</text>
  <rect class="submodule" x="437" y="522" width="246" height="28" rx="7"/>
  <text class="submodule-text" x="560" y="541" text-anchor="middle">Eagle3 Trainer Backend</text>
  <rect class="submodule" x="437" y="558" width="246" height="28" rx="7"/>
  <text class="submodule-text" x="560" y="577" text-anchor="middle">DFlash Trainer Backend</text>
  <rect class="submodule" x="437" y="594" width="246" height="28" rx="7"/>
  <text class="submodule-text" x="560" y="613" text-anchor="middle">DSpark Trainer Backend</text>
  <text class="ellipsis-text" x="560" y="639" text-anchor="middle">...</text>

</svg>
